<?xml version="1.0" standalone="no"?><!DOCTYPE svg PUBLIC "-//W3C//DTD SVG 1.1//EN" "http://www.w3.org/Graphics/SVG/1.1/DTD/svg11.dtd"><svg t="1689930252252" class="icon" viewBox="0 0 1024 1024" version="1.1" xmlns="http://www.w3.org/2000/svg" p-id="3358" xmlns:xlink="http://www.w3.org/1999/xlink" width="256" height="256"><path d="M450.901333 746.837333c7.509333 12.288 15.018667 22.869333 21.504 32.085334 0.341333 0 1.024 0.341333 1.365334 0.341333-6.144-9.898667-13.994667-20.821333-22.869334-32.426667z" p-id="3359"></path><path d="M584.704 633.514667c0 100.352-75.434667 181.930667-75.434667 181.930666s-75.434667-81.578667-75.434666-181.930666 75.434667-181.930667 75.434666-181.930667 75.434667 81.237333 75.434667 181.930667z" fill="#FDA888" p-id="3360"></path><path d="M679.936 721.92c-60.416 80.554667-169.642667 100.352-169.642667 100.352s-11.605333-110.592 48.810667-190.805333 169.642667-100.352 169.642667-100.352 11.264 110.250667-48.810667 190.805333z" fill="#FDA888" p-id="3361"></path><path d="M707.242667 824.32c-93.184 37.546667-196.949333-1.706667-196.949334-1.706667s47.445333-100.352 140.629334-137.898666 196.949333 1.706667 196.949333 1.706666-47.445333 100.010667-140.629333 137.898667zM339.968 721.92c60.416 80.554667 169.642667 100.352 169.642667 100.352s11.605333-110.592-48.810667-190.805333-169.642667-100.352-169.642667-100.352-11.264 110.250667 48.810667 190.805333z" fill="#FDA888" p-id="3362"></path><path d="M312.661333 824.32c93.184 37.546667 196.949333-1.706667 196.949334-1.706667s-47.445333-100.352-140.629334-137.898666-196.949333 1.365333-196.949333 1.365333 47.104 100.352 140.629333 138.24z" fill="#FDA888" p-id="3363"></path><path d="M403.114667 644.437333c32.426667 25.941333 58.709333 54.954667 78.506666 81.237334-27.648-45.056-58.026667-111.274667-58.709333-183.978667-10.922667-13.653333-22.528-25.941333-35.157333-37.205333-1.365333 11.264-2.048 22.869333-2.048 34.474666 0.341333 37.546667 7.168 73.045333 17.408 105.472zM620.885333 645.802667c10.581333-32.768 17.749333-68.949333 17.749334-106.837334 0-11.264-0.682667-22.528-2.048-33.450666-12.629333 11.264-24.576 23.893333-35.157334 37.888-1.365333 79.530667-37.546667 150.869333-66.901333 195.242666 20.48-28.672 49.152-62.805333 86.357333-92.842666zM565.248 759.808c-4.096 5.802667-7.850667 11.264-11.264 16.384 3.754667-5.12 7.509333-10.581333 11.264-16.384zM512.341333 307.882667c23.552 30.378667 70.997333 100.010667 84.992 183.637333 10.24-10.581333 21.162667-19.797333 32.085334-28.672-25.941333-111.616-99.669333-192.512-103.424-196.608l-13.653334-14.677333-13.653333 14.677333c-3.754667 4.096-77.141333 84.650667-103.424 195.584 10.922667 8.533333 21.845333 18.090667 32.085333 28.330667 14.677333-82.944 61.44-151.893333 84.992-182.272z" p-id="3364"></path><path d="M807.936 416.085333c0.682667 31.744-1.706667 94.549333-24.576 158.037334 13.653333-2.048 27.306667-3.413333 40.618667-4.096 28.672-90.794667 20.48-174.421333 19.797333-179.541334l-2.048-19.797333-19.797333 3.754667c-5.461333 1.024-106.496 20.138667-192.512 88.405333 3.072 13.653333 5.461333 27.989333 7.168 42.666667 60.416-54.272 135.509333-79.872 171.349333-89.429334zM740.693333 654.336c-53.930667 72.021333-138.581333 108.544-188.757333 124.928-4.437333 7.168-8.533333 13.312-11.605333 18.773333 10.922667 3.072 25.258667 6.826667 42.666666 9.898667 55.296-20.48 133.461333-59.733333 187.392-131.413333 16.384-21.845333 29.013333-44.714667 38.912-67.925334-14.677333 1.365333-29.696 3.413333-44.373333 6.826667-6.826667 13.312-14.677333 26.282667-24.234667 38.912z" p-id="3365"></path><path d="M601.429333 538.965333v4.096c10.922667-13.994667 22.528-26.624 35.157334-37.888-1.706667-14.677333-4.096-28.672-7.168-42.666666-10.922667 8.874667-21.845333 18.432-32.085334 28.672 2.730667 15.701333 4.096 31.744 4.096 47.786666zM1002.496 596.992c-4.437333-1.706667-83.285333-31.061333-178.517333-26.624-4.096 12.629333-8.874667 25.6-14.336 38.229333 56.32-4.778667 108.885333 4.096 142.336 12.288 8.533333 2.048 12.629333 11.946667 7.850666 19.456-27.989333 44.032-85.674667 119.466667-171.690666 154.282667-73.045333 29.354667-151.552 23.552-204.8 13.653333-22.869333 8.533333-41.984 13.653333-53.930667 16.384l-0.682667 6.485334-14.677333-2.730667c-0.341333 0-0.682667 0.341333-1.024 0.341333 18.773333 6.485333 79.530667 24.917333 153.6 24.917334 42.666667 0 89.770667-6.144 135.509333-24.576 138.24-55.978667 207.872-200.362667 210.602667-206.506667l8.533333-18.090667-18.773333-7.509333zM534.528 738.304c-0.682667 1.024-1.706667 2.048-2.389333 3.413333v0.341334c1.024-1.024 1.706667-2.389333 2.389333-3.754667zM551.594667 779.264c0.341333 0 0.341333 0 0 0 1.024-1.024 1.706667-2.048 2.389333-3.072-0.682667 1.024-1.365333 2.048-2.389333 3.072z" p-id="3366"></path><path d="M565.248 759.808c19.114667-28.672 40.618667-67.925333 55.637333-114.005333-37.205333 29.696-65.877333 63.829333-86.357333 92.501333-0.682667 1.365333-1.706667 2.389333-2.389333 3.413333-0.341333 3.413333-0.341333 6.485333-0.682667 9.557334 0.682667 12.970667 0.682667 24.234667 0.341333 33.450666 5.802667-1.706667 12.288-3.413333 19.456-5.802666 0.682667-1.024 1.365333-2.048 2.389334-3.072 3.754667-4.778667 7.509333-10.24 11.605333-16.042667zM551.936 779.264c-8.874667 11.946667-16.042667 20.821333-20.821333 26.282667l6.485333 13.653333-8.192 3.072-0.341333 2.389333c11.605333-2.730667 30.72-7.850667 53.930666-16.384-17.408-3.072-31.744-6.826667-42.666666-9.898666 3.413333-5.802667 7.168-12.288 11.605333-19.114667zM764.928 615.424c15.018667-3.413333 29.696-5.461333 44.373333-6.826667 5.461333-12.629333 10.24-25.6 14.336-38.229333-13.312 0.682667-26.965333 1.706667-40.618666 4.096-4.778667 13.312-10.922667 27.306667-18.090667 40.96z" p-id="3367"></path><path d="M532.138667 742.058667s0-0.341333 0 0c-0.341333 0.341333-0.682667 0.682667-1.024 1.365333v0.341333c0.341333-0.682667 0.682667-1.024 1.024-1.706666zM531.797333 751.616c0-3.072 0.341333-6.144 0.682667-9.557333-0.341333 0.682667-0.682667 1.024-1.024 1.706666 0 2.730667 0 5.461333 0.341333 7.850667zM531.114667 805.546667c4.778667-5.461333 11.946667-14.336 20.48-25.941334-7.168 2.389333-13.994667 4.437333-19.456 5.802667 0 8.874667-0.682667 15.701333-1.024 20.138667zM479.914667 788.821333c-2.389333-3.072-4.778667-6.485333-7.509334-10.24-50.517333-16.725333-133.802667-53.248-187.392-124.586666-9.216-12.629333-17.408-25.6-24.234666-38.912-15.018667-3.413333-30.037333-5.802667-44.373334-6.826667 9.898667 23.210667 22.869333 46.421333 38.912 67.925333 53.589333 71.68 131.754667 111.274667 187.392 131.413334 17.408-3.072 31.744-6.826667 42.666667-9.898667-1.706667-2.389333-3.413333-5.461333-5.461333-8.874667zM218.112 416.085333c35.498667 9.557333 109.909333 35.157333 169.984 88.405334 1.706667-14.677333 4.096-28.672 7.168-42.325334-86.016-67.584-186.026667-86.698667-191.488-87.722666l-19.797333-3.754667-2.048 19.797333c-0.341333 4.778667-8.533333 88.405333 19.797333 179.541334 13.312 0.682667 26.965333 1.706667 40.618667 4.096-22.186667-63.488-24.917333-126.293333-24.234667-158.037334z" p-id="3368"></path><path d="M472.405333 778.581333c2.730667 3.754667 5.12 7.168 7.509334 10.24-1.706667-3.072-3.754667-6.144-6.144-9.557333-0.341333-0.341333-0.682667-0.341333-1.365334-0.682667zM423.253333 541.354667v-2.389334c0-16.725333 1.706667-32.768 4.437334-48.469333-10.24-10.24-21.162667-19.797333-32.085334-28.330667-3.072 13.653333-5.802667 27.989333-7.168 42.325334 12.288 10.922667 23.893333 23.210667 34.816 36.864zM510.976 768c0.682667 1.024 1.365333 2.389333 2.048 3.413333 3.072-4.778667 6.144-10.24 9.898667-15.701333-3.754667 5.461333-7.509333 10.24-10.581334 14.336-0.341333-0.682667-1.024-1.365333-1.365333-2.048zM516.096 827.050667c-0.682667 0.341333-1.365333 0.341333-2.048 0.682666l14.677333 2.730667 0.682667-6.485333c-7.168 1.706667-11.605333 2.389333-12.629333 2.730666l-0.682667 0.341334zM531.114667 785.408c0.341333 0 0.682667-0.341333 1.024-0.341333 0.341333-9.216 0-20.48-0.341334-33.450667-0.682667 13.312-1.024 24.917333-0.682666 33.792zM531.114667 805.546667z" p-id="3369"></path><path d="M518.826667 826.026667c-0.341333 0-1.365333 0.682667-3.072 1.024h1.024c1.024-0.341333 5.461333-1.024 12.629333-2.730667l0.341333-2.389333-10.922666 4.096zM531.114667 743.765333c0-0.341333 0-0.341333 0 0-3.072 4.096-5.802667 8.192-8.192 11.946667 2.730667-3.754667 5.461333-7.850667 8.192-11.946667zM531.114667 785.408c0-8.874667 0-20.48 0.682666-33.792 0-2.730667-0.341333-5.12-0.341333-7.850667-3.072 4.437333-5.802667 8.192-8.192 11.946667-3.754667 5.802667-6.826667 10.922667-9.898667 15.701333 9.898667 16.725333 15.36 27.989333 16.042667 29.354667l2.048 4.437333c0.341333-4.437333 0.682667-11.264 1.024-20.138666-0.682667 0.341333-1.024 0.341333-1.365333 0.341333zM497.322667 830.805333l-0.682667-6.485333c-11.605333-2.730667-30.72-7.850667-53.930667-16.384-53.248 9.898667-132.096 15.701333-204.8-13.653333-96.597333-38.912-157.696-129.706667-180.906666-169.301334 30.72-8.874667 92.16-22.528 159.061333-16.725333-5.461333-12.629333-10.24-25.6-14.336-38.229333-95.232-4.096-174.08 24.917333-178.517333 26.624L4.778667 604.16l8.533333 18.090667c2.730667 6.144 72.362667 150.528 210.602667 206.506666 45.738667 18.432 92.842667 24.576 135.509333 24.576 73.728 0 134.485333-18.432 153.6-24.917333-0.341333 0-0.682667-0.341333-1.024-0.341333l-14.677333 2.730666zM493.568 741.717333c-3.754667-5.12-7.509333-10.581333-11.946667-16.042666 4.096 6.826667 8.192 12.970667 11.946667 18.773333 0.341333-1.024 0-1.706667 0-2.730667z" p-id="3370"></path><path d="M493.909333 785.066667c-0.341333-9.216 0-20.48 0.341334-33.450667 0-2.389333-0.341333-4.778667-0.341334-7.509333-3.754667-5.802667-7.850667-11.946667-11.946666-18.773334-19.797333-26.282667-46.08-55.296-78.506667-81.237333 12.629333 39.936 30.72 74.752 47.786667 102.4 8.874667 11.605333 16.725333 22.869333 22.869333 32.426667 7.168 2.730667 13.994667 4.778667 19.797333 6.144zM508.928 827.050667c-1.024-0.341333-5.461333-1.024-12.629333-2.730667l0.682666 6.485333 14.677334-2.730666c-0.682667-0.341333-1.365333-0.341333-2.048-0.682667l-0.682667-0.341333z" p-id="3371"></path><path d="M494.250667 751.616c-0.682667 12.970667-0.682667 24.234667-0.341334 33.450667 0.341333 0 0.682667 0.341333 1.024 0.341333 0.341333-8.874667 0-20.48-0.682666-33.792zM513.024 827.733333l-1.024 0.341334c0.341333 0 0.682667 0.341333 1.024 0.341333 0.341333 0 0.682667-0.341333 1.024-0.341333l-1.024-0.341334zM529.749333 821.930667l8.192-3.072-6.485333-13.653334c-0.341333 2.730667-0.341333 4.778667-0.341333 5.461334l-1.365334 11.264z" p-id="3372"></path><path d="M512 828.074667l1.024-0.341334-3.072-0.682666 2.048 1.024zM488.106667 819.2l5.802666-12.629333c-3.413333-3.754667-8.192-9.557333-14.336-17.408 2.048 3.072 3.754667 6.144 5.461334 9.216-10.922667 3.072-25.258667 6.826667-42.666667 9.898666 22.869333 8.533333 41.984 13.653333 53.930667 16.384l-0.341334-2.389333-7.850666-3.072zM494.592 745.472v-2.048c-0.341333-0.682667-0.682667-1.024-1.024-1.706667v2.389334c0.682667 0.682667 0.682667 1.024 1.024 1.365333zM260.778667 615.424c-7.168-13.653333-12.970667-27.306667-18.090667-41.301333-13.653333-2.048-27.306667-3.413333-40.618667-4.096 4.096 12.629333 8.874667 25.6 14.336 38.229333 14.677333 1.365333 29.696 3.754667 44.373334 7.168zM493.909333 785.066667c-5.802667-1.706667-12.288-3.413333-19.797333-6.144 2.048 3.413333 4.096 6.485333 6.144 9.557333 6.144 7.850667 10.922667 13.653333 14.336 17.408l0.341333-1.024c-0.682667-3.754667-1.024-10.581333-1.024-19.797333z" p-id="3373"></path><path d="M493.909333 744.448c0.341333 2.389333 0.341333 5.12 0.341334 7.509333 0-2.048 0.341333-4.096 0.341333-6.144-0.341333-0.682667-0.341333-1.024-0.682667-1.365333zM509.952 827.392c-1.365333-0.341333-2.389333-1.024-3.072-1.024l-10.581333-4.096 0.341333 2.389333c7.168 1.706667 11.605333 2.389333 12.629333 2.730667h0.682667zM510.976 768c-4.437333-7.509333-9.898667-15.701333-16.042667-24.917333v2.048c5.802667 9.216 11.264 16.725333 16.042667 22.869333z" p-id="3374"></path><path d="M494.592 745.472c0 2.048-0.341333 4.096-0.341333 6.144 0.682667 13.312 0.682667 24.917333 0.682666 33.792-0.341333 0-0.682667-0.341333-1.024-0.341333 0.341333 8.874667 0.682667 15.701333 1.024 20.138666l2.048-4.437333c0.682667-1.706667 6.144-12.970667 16.042667-29.354667-0.682667-1.024-1.365333-2.048-2.048-3.413333-4.778667-6.144-10.24-13.653333-16.384-22.528zM488.106667 819.2l8.192 3.072-1.024-11.264c0-0.341333-0.341333-1.706667-0.341334-3.754667l-0.682666-0.682666-6.144 12.629333zM513.024 827.733333l1.024 0.341334c0.682667-0.341333 1.365333-0.682667 2.048-0.682667l-3.072 0.341333z" p-id="3375"></path><path d="M494.250667 806.570667l0.682666 0.682666v-1.706666l-0.682666 1.024z" p-id="3376"></path><path d="M518.826667 826.026667l10.581333-4.096 1.024-11.264c0-0.682667 0.341333-2.389333 0.341333-5.461334-2.730667 3.413333-4.778667 5.461333-5.461333 6.144l-13.653333 14.677334-13.653334-14.677334c-0.341333-0.341333-2.048-2.048-3.754666-4.437333 0 2.048 0.341333 3.072 0.341333 3.754667l1.024 11.264 10.581333 4.096c0.341333 0 1.365333 0.682667 3.072 1.024l3.072 0.682666 3.072-0.682666c2.048-0.341333 3.072-0.682667 3.413334-1.024z" p-id="3377"></path><path d="M513.024 771.413333c-9.898667 16.725333-15.36 27.989333-16.042667 29.354667l-2.048 4.437333v1.706667c2.048 2.389333 3.413333 4.096 3.754667 4.437333l13.653333 14.677334 13.653334-14.677334c0.682667-0.682667 2.389333-2.730667 5.461333-6.144l-2.048-4.437333c-1.024-1.365333-6.485333-12.629333-16.384-29.354667z" p-id="3378"></path><path d="M363.178667 329.386667m-29.013334 0a29.013333 29.013333 0 1 0 58.026667 0 29.013333 29.013333 0 1 0-58.026667 0Z" fill="#FDA888" p-id="3379"></path><path d="M666.624 329.386667m-29.013333 0a29.013333 29.013333 0 1 0 58.026666 0 29.013333 29.013333 0 1 0-58.026666 0Z" fill="#FDA888" p-id="3380"></path><path d="M510.976 199.68m-29.013333 0a29.013333 29.013333 0 1 0 58.026666 0 29.013333 29.013333 0 1 0-58.026666 0Z" fill="#FDA888" p-id="3381"></path></svg>